<?xml version="1.0" encoding="UTF-8" standalone="no"?>
<svg
   xmlns:dc="http://purl.org/dc/elements/1.1/"
   xmlns:cc="http://creativecommons.org/ns#"
   xmlns:rdf="http://www.w3.org/1999/02/22-rdf-syntax-ns#"
   xmlns:svg="http://www.w3.org/2000/svg"
   xmlns="http://www.w3.org/2000/svg"
   preserveAspectRatio="none"
   xml:space="preserve"
   viewBox="0 0 15 16.35"
   height="16.35"
   width="15"
   y="0px"
   x="0px"
   id="Layer_1"
   version="1.1"><metadata
   id="metadata24"><rdf:RDF><cc:Work
       rdf:about=""><dc:format>image/svg+xml</dc:format><dc:type
         rdf:resource="http://purl.org/dc/dcmitype/StillImage" /><dc:title></dc:title></cc:Work></rdf:RDF></metadata><defs
   id="defs22" />
<style
   id="style2"
   type="text/css">
	.st0{fill-rule:evenodd;clip-rule:evenodd;fill:url(#SVGID_1_);}
	.st1{fill:#606162;}
	.st2{fill-rule:evenodd;clip-rule:evenodd;fill:#393B3D;}
	.st3{fill-rule:evenodd;clip-rule:evenodd;fill:#FFFFFF;}
</style>
<linearGradient
   gradientTransform="matrix(14,0,0,15.2725,9855,-631.2713)"
   y2="42.486599"
   x2="-703.21417"
   y1="41.525101"
   x1="-703.21417"
   gradientUnits="userSpaceOnUse"
   id="SVGID_1_">
	<stop
   id="stop4"
   style="stop-color:#C7B56F"
   offset="0" />
	<stop
   id="stop6"
   style="stop-color:#A58D51"
   offset="0.5885" />
	<stop
   id="stop8"
   style="stop-color:#D6B871"
   offset="1" />
</linearGradient>


<path
   style="clip-rule:evenodd;fill:#393b3d;fill-rule:evenodd"
   id="path15"
   d="m 13.1,3.275 c 0.9,0.5 1.4,1.5 1.4,2.5 v 4.8 c 0,1 -0.5,2 -1.4,2.5 l -4.1,2.4 c -0.9,0.5 -2,0.5 -2.9,0 L 2,13.075 c -1,-0.5 -1.5,-1.5 -1.5,-2.5 v -4.8 c 0,-1 0.6,-2 1.4,-2.5 L 6,0.875 c 0.9,-0.5 2,-0.5 2.9,0 z m -6.6,-1.5 -4,2.4 c -0.6,0.3 -1,1 -1,1.6 v 4.7 c 0,0.7 0.4,1.4 1,1.7 l 4,2.4 c 0.6,0.3 1.3,0.3 1.9,0 l 4.1,-2.4 c 0.6,-0.3 1,-1 1,-1.7 v -4.7 c 0,-0.6 -0.4,-1.3 -1,-1.6 l -4,-2.4 c -0.6,-0.3 -1.4,-0.3 -2,0 z m 2,1.2 3,1.7 c 0.6,0.4 1,1.1 1,1.8 v 3.3 c 0,0.8 -0.4,1.4 -1,1.8 l -3,1.8 c -0.6,0.4 -1.4,0.4 -2.1,0 l -2.9,-1.7 c -0.6,-0.4 -1,-1.1 -1,-1.8 v -3.4 c 0,-0.7 0.4,-1.4 1,-1.8 l 3,-1.7 c 0.6,-0.3 1.4,-0.3 2,0 z m -3,7.2 h 4 v -4 h -4 z"
   class="st2" />


</svg>