<?xml version="1.0" encoding="UTF-8"?>
<svg xmlns="http://www.w3.org/2000/svg" xmlns:xlink="http://www.w3.org/1999/xlink" width="17px" height="18px" viewBox="0 0 17 18" version="1.1">
<defs>
<linearGradient id="linear0" gradientUnits="userSpaceOnUse" x1="-21.63" y1="63.75" x2="-21.63" y2="62.78" gradientTransform="matrix(16.934866,0,0,-18,374.716475,1148.296552)">
<stop offset="0" style="stop-color:rgb(93.333333%,87.45098%,63.529412%);stop-opacity:1;"/>
<stop offset="0.59" style="stop-color:rgb(66.27451%,57.647059%,35.294118%);stop-opacity:1;"/>
<stop offset="1" style="stop-color:rgb(99.607843%,89.019608%,64.705882%);stop-opacity:1;"/>
</linearGradient>
</defs>
<g id="surface1">
<path style=" stroke:none;fill-rule:nonzero;fill:url(#linear0);" d="M 15.132812 3.1875 C 16.265625 3.828125 16.964844 5.007812 16.96875 6.289062 L 16.96875 11.722656 C 16.96875 13.003906 16.269531 14.1875 15.132812 14.828125 L 10.335938 17.539062 C 9.199219 18.179688 7.800781 18.179688 6.664062 17.539062 L 1.867188 14.8125 C 0.734375 14.175781 0.0351562 13 0.03125 11.722656 L 0.03125 6.289062 C 0.0351562 5.007812 0.734375 3.828125 1.867188 3.1875 L 6.664062 0.484375 C 7.800781 -0.160156 9.199219 -0.160156 10.335938 0.484375 Z M 7.308594 1.710938 L 2.636719 4.351562 C 1.898438 4.765625 1.441406 5.535156 1.445312 6.367188 L 1.445312 11.640625 C 1.441406 12.472656 1.898438 13.242188 2.636719 13.65625 L 7.308594 16.296875 C 8.046875 16.710938 8.953125 16.710938 9.691406 16.296875 L 14.363281 13.65625 C 15.101562 13.242188 15.558594 12.472656 15.554688 11.640625 L 15.554688 6.367188 C 15.558594 5.535156 15.101562 4.765625 14.363281 4.351562 L 9.691406 1.710938 C 8.953125 1.296875 8.046875 1.296875 7.308594 1.710938 Z M 9.480469 3.1875 L 13.164062 5.253906 C 13.765625 5.59375 14.136719 6.21875 14.144531 6.898438 L 14.144531 11.035156 C 14.144531 11.71875 13.773438 12.351562 13.164062 12.691406 L 9.480469 14.757812 C 8.875 15.105469 8.125 15.105469 7.519531 14.757812 L 3.835938 12.691406 C 3.242188 12.359375 2.871094 11.75 2.855469 11.082031 L 2.855469 6.898438 C 2.863281 6.222656 3.238281 5.601562 3.835938 5.261719 L 7.519531 3.191406 C 8.125 2.847656 8.875 2.847656 9.480469 3.191406 Z M 6.382812 11.070312 L 10.617188 11.070312 L 10.617188 6.929688 L 6.382812 6.929688 Z M 6.382812 11.070312 "/>
</g>
</svg>
